<?xml version="1.0" encoding="utf-8"?>
<!-- Generator: Adobe Illustrator 25.0.1, SVG Export Plug-In . SVG Version: 6.00 Build 0)  -->
<svg version="1.1" id="Layer_1" xmlns="http://www.w3.org/2000/svg" xmlns:xlink="http://www.w3.org/1999/xlink" x="0px" y="0px"
	 viewBox="0 0 180 180" style="enable-background:new 0 0 180 180;" xml:space="preserve">
<style type="text/css">
	.st0{fill:#020203;}
</style>
<g>
	<path class="st0" d="M13.18,139.7c0.79-0.35,1.39-0.87,1.82-1.55c0.42-0.68,0.64-1.48,0.64-2.38c0-1.08-0.31-1.99-0.92-2.73
		c-0.61-0.74-1.41-1.22-2.4-1.45c-0.65-0.15-1.9-0.23-3.73-0.23h-3.3v16.54h1.65v-7.68h0.93l5.95,7.68h2.05l-5.95-7.68
		C11.31,140.23,12.39,140.05,13.18,139.7z M6.94,138.62v-5.62h2.92c1.13,0,1.94,0.1,2.43,0.29c0.49,0.2,0.88,0.52,1.18,0.97
		c0.3,0.45,0.45,0.96,0.45,1.51c0,0.57-0.15,1.09-0.44,1.55c-0.3,0.46-0.71,0.8-1.24,1.01c-0.53,0.21-1.35,0.31-2.45,0.31
		L6.94,138.62z"/>
	<path class="st0" d="M29.1,131.37l-7.82,16.54h1.84l2.58-5.44h7.13l2.6,5.44h1.79l-7.71-16.54H29.1z M26.46,140.88l2.83-5.99
		l2.82,5.99H26.46z"/>
	<path class="st0" d="M51.34,139.7c0.79-0.35,1.39-0.87,1.82-1.55c0.42-0.68,0.64-1.48,0.64-2.38c0-1.08-0.31-1.99-0.92-2.73
		c-0.61-0.74-1.41-1.22-2.4-1.45c-0.65-0.15-1.9-0.23-3.73-0.23h-3.3v16.54h1.65v-7.68h0.93l5.95,7.68h2.05l-5.95-7.68
		C49.46,140.23,50.55,140.05,51.34,139.7z M45.1,138.62v-5.62h2.92c1.13,0,1.94,0.1,2.43,0.29c0.49,0.2,0.88,0.52,1.18,0.97
		c0.3,0.45,0.45,0.96,0.45,1.51c0,0.57-0.15,1.09-0.44,1.55c-0.3,0.46-0.71,0.8-1.24,1.01c-0.53,0.21-1.35,0.31-2.45,0.31
		L45.1,138.62z"/>
	<polygon class="st0" points="60.91,147.92 70.33,147.92 70.33,146.3 62.57,146.3 62.57,139.8 70.33,139.8 70.33,138.18 
		62.57,138.18 62.57,132.99 70.39,132.99 70.39,131.37 60.91,131.37 	"/>
	<path class="st0" d="M94.75,139.7c0.79-0.35,1.39-0.87,1.82-1.55c0.42-0.68,0.64-1.48,0.64-2.38c0-1.08-0.31-1.99-0.92-2.73
		c-0.62-0.74-1.41-1.22-2.4-1.45c-0.65-0.15-1.9-0.23-3.73-0.23h-3.3v16.54h1.65v-7.68h0.93l5.95,7.68h2.05l-5.95-7.68
		C92.88,140.23,93.96,140.05,94.75,139.7z M88.51,138.62v-5.62h2.92c1.13,0,1.94,0.1,2.43,0.29c0.49,0.2,0.88,0.52,1.18,0.97
		c0.3,0.45,0.45,0.96,0.45,1.51c0,0.57-0.15,1.09-0.44,1.55c-0.3,0.46-0.71,0.8-1.24,1.01c-0.53,0.21-1.35,0.31-2.45,0.31
		L88.51,138.62z"/>
	<path class="st0" d="M110.67,131.37l-7.82,16.54h1.84l2.58-5.44h7.13l2.6,5.44h1.79l-7.71-16.54H110.67z M108.03,140.88l2.83-5.99
		l2.82,5.99H108.03z"/>
	<path class="st0" d="M133.41,139.93c-0.46-0.39-1.13-0.74-1.98-1.03c0.69-0.37,1.22-0.86,1.58-1.47c0.36-0.6,0.54-1.27,0.54-2.01
		c0-0.79-0.2-1.5-0.61-2.15c-0.41-0.64-0.97-1.12-1.67-1.43c-0.7-0.31-1.71-0.47-3.03-0.47h-3.26v16.54h4.54
		c1.63,0,2.94-0.46,3.91-1.38c0.97-0.92,1.46-2.04,1.46-3.37c0-0.65-0.13-1.26-0.39-1.82C134.23,140.8,133.87,140.32,133.41,139.93z
		 M126.59,132.99h1.92c1.16,0,2,0.22,2.53,0.65c0.53,0.43,0.79,1.03,0.79,1.78c0,0.56-0.16,1.07-0.47,1.54
		c-0.32,0.46-0.74,0.8-1.28,1.01c-0.54,0.21-1.39,0.32-2.54,0.32h-0.95V132.99z M132.65,144.83c-0.34,0.5-0.79,0.87-1.36,1.11
		c-0.56,0.24-1.45,0.35-2.66,0.35h-2.05v-6.34h0.94c1.4,0,2.38,0.07,2.94,0.2c0.84,0.2,1.5,0.58,1.98,1.12
		c0.48,0.55,0.72,1.19,0.72,1.92C133.17,143.79,133,144.33,132.65,144.83z"/>
	<path class="st0" d="M150.2,139.93c-0.46-0.39-1.13-0.74-1.98-1.03c0.69-0.37,1.22-0.86,1.58-1.47c0.36-0.6,0.54-1.27,0.54-2.01
		c0-0.79-0.2-1.5-0.61-2.15c-0.41-0.64-0.97-1.12-1.67-1.43c-0.7-0.31-1.71-0.47-3.03-0.47h-3.26v16.54h4.54
		c1.63,0,2.94-0.46,3.91-1.38c0.97-0.92,1.46-2.04,1.46-3.37c0-0.65-0.13-1.26-0.39-1.82C151.03,140.8,150.67,140.32,150.2,139.93z
		 M143.38,132.99h1.92c1.16,0,2,0.22,2.53,0.65c0.53,0.43,0.79,1.03,0.79,1.78c0,0.56-0.16,1.07-0.47,1.54
		c-0.32,0.46-0.74,0.8-1.28,1.01c-0.54,0.21-1.39,0.32-2.54,0.32h-0.95V132.99z M149.45,144.83c-0.34,0.5-0.79,0.87-1.36,1.11
		c-0.56,0.24-1.45,0.35-2.66,0.35h-2.05v-6.34h0.94c1.4,0,2.38,0.07,2.94,0.2c0.84,0.2,1.5,0.58,1.98,1.12
		c0.48,0.55,0.72,1.19,0.72,1.92C149.96,143.79,149.79,144.33,149.45,144.83z"/>
	<rect x="158.28" y="131.37" class="st0" width="1.65" height="16.54"/>
	<polygon class="st0" points="165.65,131.37 165.65,132.99 169.34,132.99 169.34,147.92 171.03,147.92 171.03,132.99 174.71,132.99 
		174.71,131.37 	"/>
	<path class="st0" d="M122.27,40.51l-4.3-2.46l-14.29,12.48l-0.06,0.05L93.44,67.89h-3.97L79.31,50.64l-14.38-12.6l-4.29,2.46
		l1.6,20.56l10.11,9.77l4.43,7.5v7.5l-4.62,5.59l0.4,11.63l10.41,6.39h2.34l4.74,4.76h2.81l4.74-4.76h2.34l10.41-6.39l0.39-11.63
		l-4.62-5.59v-7.47l4.46-7.55l9.99-9.65l-0.01-0.01l0.1-0.1L122.27,40.51z M119.8,60.57l-11.92,6.15l-3.1,2.46l3.38-16.16
		l10.02-13.82l3.15,1.8L119.8,60.57z M105.22,85.82l-2.58,2.86h-2.11l-0.56-1.81l5.25-7.26V85.82z M109.89,70.22l-3.98,6.71
		l-1.33-6.43l3.76-2.99l9.35-4.83L109.89,70.22z M104.33,51.16l11.05-9.65l-8.01,11.06l-0.08,0.17l-3.65,17.48l0,0.18l1.37,6.62
		l-10.72-8.79L104.33,51.16z M88.62,68.24l-10.69,8.8l1.37-6.62l0-0.18l-3.65-17.48l-0.08-0.17l-7.98-11.01l10.98,9.59L88.62,68.24z
		 M65.2,62.67l9.39,4.85l3.76,2.99l-1.33,6.46l-3.93-6.65L65.2,62.67z M77.68,79.61l5.25,7.27l-0.56,1.81h-2.11l-2.58-2.86V79.61z
		 M61.58,41.01l3.16-1.81l10.03,13.84l3.38,16.16l-3.03-2.41l-12.02-6.21L61.58,41.01z M92.48,113.3h-2.06l-3.01-3.02l2.44,1.01
		l1.46-1.17l1.46,1.17l2.91-1.21L92.48,113.3z M109.46,102.53l-9.78,6h-1.41l3.44-3.23l0.42-7.46l-5.91-4.46l0.21-10.13l3.54-3.39
		l-0.63-0.65l-3.81,3.65l-0.22,10.96l5.89,4.45l-0.38,6.62l-3.95,3.71l-3.96,1.64l-1.16-0.93v-5.28l3.48-2.34v-2.08h-0.91v1.6
		l-3.02,2.03l-3.02-2.03v-1.6h-0.91v2.08l3.47,2.34v5.28l-1.16,0.93l-3.95-1.63l-0.07-0.07h-0.01l-3.88-3.64l-0.38-6.62l5.89-4.45
		l-0.22-10.96l-3.81-3.65l-0.63,0.65l3.54,3.39l0.21,10.13l-5.91,4.46l0.42,7.46l3.44,3.23h-1.13l-9.78-6l-0.37-10.8l4.17-5.05
		l2.61,2.9h3.18l0.9-2.88l-6.09-8.43l11.52-9.49h4.17l11.54,9.47l-6.1,8.45l0.9,2.88h3.18l2.61-2.9l4.17,5.05L109.46,102.53z"/>
	<path class="st0" d="M129.98,83.5c0.11,0.84,0.19,1.68,0.28,2.51c0.12,1.05,0.41,1.2,1.5,0.77c-0.8-1.56,0.09-3.56-1.36-4.98
		c0.12-0.11,0.21-0.19,0.31-0.27c0.96-0.81,1.15-1.86,0.88-3.01c-0.27-1.14-1.05-1.83-2.21-1.97c-0.94-0.11-1.89-0.09-2.84-0.11
		c-0.8-0.02-1.61,0-2.39,0c0,3.58,0,7.02,0,10.49c0.39,0,0.71,0,1.13,0c0-1.52,0-2.99,0-4.48c1.3,0,2.51-0.03,3.71,0.01
		C129.6,82.46,129.9,82.92,129.98,83.5z M125.32,81.14c0-1.16,0-2.33,0-3.55c1.26,0,2.49-0.08,3.7,0.03
		c0.95,0.08,1.43,0.82,1.42,1.78c-0.01,0.95-0.47,1.64-1.39,1.72C127.83,81.22,126.6,81.14,125.32,81.14z"/>
	<path class="st0" d="M53.7,76.52c-1.16,0.14-1.94,0.83-2.21,1.97c-0.27,1.15-0.09,2.21,0.88,3.01c0.1,0.08,0.19,0.17,0.31,0.27
		c-1.45,1.42-0.56,3.43-1.36,4.99c1.09,0.44,1.38,0.28,1.5-0.77c0.09-0.84,0.17-1.68,0.28-2.52c0.08-0.57,0.38-1.03,1-1.05
		c1.21-0.04,2.42-0.01,3.72-0.01c0,1.49,0,2.96,0,4.49c0.42,0,0.75,0,1.14,0c0-3.47,0-6.92,0-10.51c-0.78,0-1.59-0.01-2.4,0
		C55.6,76.43,54.64,76.41,53.7,76.52z M57.77,81.13c-1.28,0-2.52,0.08-3.74-0.03c-0.92-0.08-1.38-0.77-1.39-1.72
		c-0.01-0.97,0.47-1.7,1.42-1.79c1.22-0.11,2.45-0.03,3.71-0.03C57.77,78.8,57.77,79.97,57.77,81.13z"/>
	<path class="st0" d="M84.73,41.1c4.42,0,8.79,0,13.15,0c0.25-1.86,0.25-1.86,1.5-2.05c0-2.31,0-4.62,0-6.97
		c-1.07,1.03-2.1,2.02-3.19,3.08c-0.78-0.94-1.55-1.87-2.36-2.85c-0.85,0.95-1.66,1.87-2.51,2.82c-0.85-0.95-1.66-1.86-2.51-2.82
		c-0.81,0.98-1.59,1.92-2.41,2.91c-1.09-1.05-2.12-2.05-3.14-3.04c0,2.28,0,4.59,0,6.92C84.8,39.03,84.61,40.19,84.73,41.1z
		 M84.07,37.91c-0.02-1.2-0.01-2.4-0.01-3.75c0.85,0.86,1.58,1.61,2.36,2.4c0.82-0.99,1.6-1.92,2.4-2.89
		c0.83,0.93,1.64,1.84,2.49,2.79c0.84-0.94,1.65-1.85,2.49-2.79c0.8,0.96,1.56,1.88,2.35,2.84c0.78-0.78,1.53-1.53,2.41-2.41
		c0,1.42,0.01,2.67-0.01,3.92c0,0.11-0.13,0.25-0.24,0.32c-0.89,0.59-1.03,0.79-1.26,1.89c-3.81,0-7.64,0-11.48,0
		c-0.15-0.84-0.46-1.56-1.3-1.92C84.16,38.26,84.07,38.05,84.07,37.91z"/>
</g>
</svg>
